<svg width="24" height="24" viewBox="0 0 24 24" fill="none" xmlns="http://www.w3.org/2000/svg">
<g clip-path="url(#clip0_17353_797)">
<path d="M18.581 2.14L12.316 0.0509967C12.1109 -0.0173244 11.8891 -0.0173244 11.684 0.0509967L5.419 2.14C4.42291 2.47088 3.55642 3.10725 2.94265 3.95871C2.32887 4.81016 1.99904 5.83338 2 6.883V12C2 19.563 11.2 23.74 11.594 23.914C11.7218 23.9708 11.8601 24.0001 12 24.0001C12.1399 24.0001 12.2782 23.9708 12.406 23.914C12.8 23.74 22 19.563 22 12V6.883C22.001 5.83338 21.6711 4.81016 21.0574 3.95871C20.4436 3.10725 19.5771 2.47088 18.581 2.14ZM20 12C20 17.455 13.681 21.033 12 21.889C10.317 21.036 4 17.469 4 12V6.883C4.00006 6.25327 4.19828 5.63954 4.56657 5.12874C4.93486 4.61794 5.45455 4.23599 6.052 4.037L12 2.054L17.948 4.037C18.5455 4.23599 19.0651 4.61794 19.4334 5.12874C19.8017 5.63954 19.9999 6.25327 20 6.883V12Z" fill="white"/>
<path d="M15.3 8.29995L11.112 12.5L8.86804 10.16C8.77798 10.0615 8.66913 9.98205 8.5479 9.9263C8.42666 9.87055 8.2955 9.83963 8.16213 9.83536C8.02877 9.83109 7.89589 9.85356 7.77134 9.90143C7.64679 9.94931 7.53308 10.0216 7.43691 10.1141C7.34074 10.2066 7.26405 10.3174 7.21137 10.44C7.15869 10.5626 7.13107 10.6945 7.13015 10.828C7.12923 10.9614 7.15502 11.0937 7.20601 11.217C7.257 11.3403 7.33215 11.4521 7.42704 11.546L9.73304 13.946C9.90501 14.1317 10.1129 14.2806 10.3441 14.3838C10.5752 14.4869 10.8249 14.5421 11.078 14.546H11.111C11.3591 14.5468 11.6048 14.4983 11.834 14.4034C12.0632 14.3084 12.2712 14.1689 12.446 13.993L16.718 9.72095C16.8113 9.62785 16.8854 9.51727 16.936 9.39555C16.9865 9.27382 17.0126 9.14333 17.0128 9.01151C17.0129 8.8797 16.9871 8.74915 16.9368 8.62732C16.8865 8.50549 16.8126 8.39476 16.7195 8.30145C16.6264 8.20815 16.5159 8.1341 16.3941 8.08353C16.2724 8.03295 16.1419 8.00685 16.0101 8.00671C15.8783 8.00658 15.7477 8.0324 15.6259 8.08271C15.5041 8.13303 15.3933 8.20685 15.3 8.29995Z" fill="white"/>
</g>
<defs>
<clipPath id="clip0_17353_797">
<rect width="24" height="24" fill="white"/>
</clipPath>
</defs>
</svg>
